<svg width="40" height="40" viewBox="0 0 40 40" fill="none" xmlns="http://www.w3.org/2000/svg">
<circle cx="20" cy="20" r="19.5" stroke="#4990E2"/>
<circle cx="20" cy="20" r="15" fill="#4990E2"/>
<path d="M24.543 16.6045C24.543 17.2256 24.3877 17.7764 24.0771 18.2568C23.7666 18.7373 23.3389 19.1211 22.7939 19.4082C23.415 19.707 23.9072 20.1201 24.2705 20.6475C24.6338 21.1689 24.8154 21.7842 24.8154 22.4932C24.8154 23.6299 24.4287 24.5293 23.6553 25.1914C22.8818 25.8477 21.8301 26.1758 20.5 26.1758C19.1699 26.1758 18.1152 25.8447 17.3359 25.1826C16.5566 24.5205 16.167 23.624 16.167 22.4932C16.167 21.7842 16.3486 21.166 16.7119 20.6387C17.0752 20.1113 17.5645 19.7012 18.1797 19.4082C17.6348 19.1211 17.207 18.7373 16.8965 18.2568C16.5918 17.7764 16.4395 17.2256 16.4395 16.6045C16.4395 15.5146 16.8027 14.6475 17.5293 14.0029C18.2559 13.3525 19.2432 13.0273 20.4912 13.0273C21.7334 13.0273 22.7178 13.3496 23.4443 13.9941C24.1768 14.6328 24.543 15.5029 24.543 16.6045ZM22.2666 22.3086C22.2666 21.752 22.1055 21.3066 21.7832 20.9727C21.4609 20.6387 21.0273 20.4717 20.4824 20.4717C19.9434 20.4717 19.5127 20.6387 19.1904 20.9727C18.8682 21.3008 18.707 21.7461 18.707 22.3086C18.707 22.8535 18.8652 23.293 19.1816 23.627C19.498 23.9609 19.9375 24.1279 20.5 24.1279C21.0508 24.1279 21.4814 23.9668 21.792 23.6445C22.1084 23.3223 22.2666 22.877 22.2666 22.3086ZM22.0029 16.7275C22.0029 16.2295 21.8711 15.8311 21.6074 15.5322C21.3438 15.2275 20.9717 15.0752 20.4912 15.0752C20.0166 15.0752 19.6475 15.2217 19.3838 15.5146C19.1201 15.8076 18.9883 16.2119 18.9883 16.7275C18.9883 17.2373 19.1201 17.6475 19.3838 17.958C19.6475 18.2686 20.0195 18.4238 20.5 18.4238C20.9805 18.4238 21.3496 18.2686 21.6074 17.958C21.8711 17.6475 22.0029 17.2373 22.0029 16.7275Z" fill="white"/>
</svg>
