<svg width="40" height="40" viewBox="0 0 40 40" fill="none" xmlns="http://www.w3.org/2000/svg">
<circle cx="20" cy="20" r="19.5" stroke="#4990E2"/>
<circle cx="20" cy="20" r="15" fill="#4990E2"/>
<path d="M24.9736 26H16.2021V24.2598L20.3418 19.8477C20.9102 19.2266 21.3291 18.6846 21.5986 18.2217C21.874 17.7588 22.0117 17.3193 22.0117 16.9033C22.0117 16.335 21.8682 15.8896 21.5811 15.5674C21.2939 15.2393 20.8838 15.0752 20.3506 15.0752C19.7764 15.0752 19.3223 15.2744 18.9883 15.6729C18.6602 16.0654 18.4961 16.584 18.4961 17.2285H15.9473C15.9473 16.4492 16.1318 15.7373 16.501 15.0928C16.876 14.4482 17.4033 13.9443 18.083 13.5811C18.7627 13.2119 19.5332 13.0273 20.3945 13.0273C21.7129 13.0273 22.7354 13.3438 23.4619 13.9766C24.1943 14.6094 24.5605 15.5029 24.5605 16.6572C24.5605 17.29 24.3965 17.9346 24.0684 18.5908C23.7402 19.2471 23.1777 20.0117 22.3809 20.8848L19.4717 23.9521H24.9736V26Z" fill="white"/>
</svg>
