<svg width="40" height="40" viewBox="0 0 40 40" fill="none" xmlns="http://www.w3.org/2000/svg">
<circle cx="20" cy="20" r="19.5" stroke="#4990E2"/>
<circle cx="20" cy="20" r="15" fill="#4990E2"/>
<path d="M18.7861 18.4766H20.1396C20.7842 18.4766 21.2617 18.3154 21.5723 17.9932C21.8828 17.6709 22.0381 17.2432 22.0381 16.71C22.0381 16.1943 21.8828 15.793 21.5723 15.5059C21.2676 15.2188 20.8457 15.0752 20.3066 15.0752C19.8203 15.0752 19.4131 15.21 19.085 15.4795C18.7568 15.7432 18.5928 16.0889 18.5928 16.5166H16.0527C16.0527 15.8486 16.2314 15.251 16.5889 14.7236C16.9521 14.1904 17.4561 13.7744 18.1006 13.4756C18.751 13.1768 19.4658 13.0273 20.2451 13.0273C21.5986 13.0273 22.6592 13.3525 23.4268 14.0029C24.1943 14.6475 24.5781 15.5381 24.5781 16.6748C24.5781 17.2607 24.3994 17.7998 24.042 18.292C23.6846 18.7842 23.2158 19.1621 22.6357 19.4258C23.3564 19.6836 23.8926 20.0703 24.2441 20.5859C24.6016 21.1016 24.7803 21.7109 24.7803 22.4141C24.7803 23.5508 24.3643 24.4619 23.5322 25.1475C22.7061 25.833 21.6104 26.1758 20.2451 26.1758C18.9678 26.1758 17.9219 25.8389 17.1074 25.165C16.2988 24.4912 15.8945 23.6006 15.8945 22.4932H18.4346C18.4346 22.9736 18.6133 23.3662 18.9707 23.6709C19.334 23.9756 19.7793 24.1279 20.3066 24.1279C20.9102 24.1279 21.3818 23.9697 21.7217 23.6533C22.0674 23.3311 22.2402 22.9062 22.2402 22.3789C22.2402 21.1016 21.5371 20.4629 20.1309 20.4629H18.7861V18.4766Z" fill="white"/>
</svg>
