<svg width="40" height="40" viewBox="0 0 40 40" fill="none" xmlns="http://www.w3.org/2000/svg">
<circle cx="20" cy="20" r="19.5" stroke="#4990E2"/>
<circle cx="20" cy="20" r="15" fill="#4990E2"/>
<path d="M16.5801 19.707L17.3184 13.2031H24.4902V15.3213H19.4014L19.085 18.0723C19.6885 17.75 20.3301 17.5889 21.0098 17.5889C22.2285 17.5889 23.1836 17.9668 23.875 18.7227C24.5664 19.4785 24.9121 20.5361 24.9121 21.8955C24.9121 22.7217 24.7363 23.4629 24.3848 24.1191C24.0391 24.7695 23.541 25.2764 22.8906 25.6396C22.2402 25.9971 21.4727 26.1758 20.5879 26.1758C19.8145 26.1758 19.0967 26.0205 18.4346 25.71C17.7725 25.3936 17.248 24.9512 16.8613 24.3828C16.4805 23.8145 16.2783 23.167 16.2549 22.4404H18.7686C18.8213 22.9736 19.0059 23.3896 19.3223 23.6885C19.6445 23.9814 20.0635 24.1279 20.5791 24.1279C21.1533 24.1279 21.5957 23.9229 21.9062 23.5127C22.2168 23.0967 22.3721 22.5107 22.3721 21.7549C22.3721 21.0283 22.1934 20.4717 21.8359 20.085C21.4785 19.6982 20.9717 19.5049 20.3154 19.5049C19.7119 19.5049 19.2227 19.6631 18.8477 19.9795L18.6016 20.208L16.5801 19.707Z" fill="white"/>
</svg>
