<svg width="40" height="40" viewBox="0 0 40 40" fill="none" xmlns="http://www.w3.org/2000/svg">
<circle cx="20" cy="20" r="19.5" stroke="#4990E2"/>
<circle cx="20" cy="20" r="15" fill="#4990E2"/>
<path d="M23.0928 13.0713V15.1631H22.8467C21.6982 15.1807 20.7725 15.4795 20.0693 16.0596C19.3721 16.6396 18.9531 17.4453 18.8125 18.4766C19.4922 17.7852 20.3506 17.4395 21.3877 17.4395C22.501 17.4395 23.3857 17.8379 24.042 18.6348C24.6982 19.4316 25.0264 20.4805 25.0264 21.7812C25.0264 22.6133 24.8447 23.3662 24.4814 24.04C24.124 24.7139 23.6143 25.2383 22.9521 25.6133C22.2959 25.9883 21.5518 26.1758 20.7197 26.1758C19.3721 26.1758 18.2822 25.707 17.4502 24.7695C16.624 23.832 16.2109 22.5811 16.2109 21.0166V20.1025C16.2109 18.7139 16.4717 17.4893 16.9932 16.4287C17.5205 15.3623 18.2734 14.5391 19.252 13.959C20.2363 13.373 21.376 13.0771 22.6709 13.0713H23.0928ZM20.6143 19.4785C20.2041 19.4785 19.832 19.5869 19.498 19.8037C19.1641 20.0146 18.918 20.2959 18.7598 20.6475V21.4209C18.7598 22.2705 18.9268 22.9355 19.2607 23.416C19.5947 23.8906 20.0635 24.1279 20.667 24.1279C21.2119 24.1279 21.6514 23.9141 21.9854 23.4863C22.3252 23.0527 22.4951 22.4932 22.4951 21.8076C22.4951 21.1104 22.3252 20.5479 21.9854 20.1201C21.6455 19.6924 21.1885 19.4785 20.6143 19.4785Z" fill="white"/>
</svg>
