<svg width="150" height="45" viewBox="0 0 150 45" fill="none" xmlns="http://www.w3.org/2000/svg">
<path d="M7.34766 42H6.11719V35.8867H2.9873V42H1.75684V34.8906H7.34766V42ZM10.2771 39.3584V42H9.0418V34.8906H11.7615C12.5558 34.8906 13.1857 35.0973 13.6512 35.5107C14.1199 35.9242 14.3543 36.471 14.3543 37.1514C14.3543 37.848 14.1248 38.39 13.6658 38.7773C13.2101 39.1647 12.5704 39.3584 11.7469 39.3584H10.2771ZM10.2771 38.3672H11.7615C12.201 38.3672 12.5363 38.2646 12.7674 38.0596C12.9985 37.8512 13.1141 37.5518 13.1141 37.1611C13.1141 36.777 12.9969 36.471 12.7625 36.2432C12.5281 36.012 12.2059 35.8932 11.7957 35.8867H10.2771V38.3672ZM21.3121 38.6309C21.3121 39.3275 21.1917 39.9395 20.9508 40.4668C20.7099 40.9909 20.3648 41.3945 19.9156 41.6777C19.4697 41.9577 18.9553 42.0977 18.3727 42.0977C17.7965 42.0977 17.2822 41.9577 16.8297 41.6777C16.3805 41.3945 16.0322 40.9925 15.7848 40.4717C15.5406 39.9508 15.4169 39.3503 15.4137 38.6699V38.2695C15.4137 37.5762 15.5357 36.9642 15.7799 36.4336C16.0273 35.903 16.374 35.4977 16.8199 35.2178C17.2691 34.9346 17.7835 34.793 18.3629 34.793C18.9423 34.793 19.455 34.9329 19.901 35.2129C20.3502 35.4896 20.6969 35.89 20.941 36.4141C21.1852 36.9349 21.3089 37.542 21.3121 38.2354V38.6309ZM20.0768 38.2598C20.0768 37.472 19.927 36.8682 19.6275 36.4482C19.3313 36.0283 18.9098 35.8184 18.3629 35.8184C17.829 35.8184 17.4107 36.0283 17.108 36.4482C16.8085 36.8649 16.6555 37.4557 16.649 38.2207V38.6309C16.649 39.4121 16.8004 40.016 17.1031 40.4424C17.4091 40.8688 17.8323 41.082 18.3727 41.082C18.9195 41.082 19.3395 40.8737 19.6324 40.457C19.9286 40.0404 20.0768 39.4316 20.0768 38.6309V38.2598ZM26.8979 38.8262H23.9779V41.0137H27.391V42H22.7426V34.8906H27.3568V35.8867H23.9779V37.8496H26.8979V38.8262ZM30.7014 38.9531H29.8615V42H28.6311V34.8906H29.8615V37.8789H30.5402L32.6301 34.8906H34.1437L31.7023 38.2939L34.3586 42H32.8742L30.7014 38.9531ZM40.3789 35.8867H38.1621V42H36.9365V35.8867H34.7393V34.8906H40.3789V35.8867ZM45.149 39.3584V42H43.9137V34.8906H46.6334C47.4277 34.8906 48.0576 35.0973 48.523 35.5107C48.9918 35.9242 49.2262 36.471 49.2262 37.1514C49.2262 37.848 48.9967 38.39 48.5377 38.7773C48.082 39.1647 47.4423 39.3584 46.6188 39.3584H45.149ZM45.149 38.3672H46.6334C47.0729 38.3672 47.4081 38.2646 47.6393 38.0596C47.8704 37.8512 47.9859 37.5518 47.9859 37.1611C47.9859 36.777 47.8688 36.471 47.6344 36.2432C47.4 36.012 47.0777 35.8932 46.6676 35.8867H45.149V38.3672ZM54.6654 38.8262H51.7455V41.0137H55.1586V42H50.5102V34.8906H55.1244V35.8867H51.7455V37.8496H54.6654V38.8262ZM57.966 34.8906L60.0168 40.3398L62.0627 34.8906H63.6594V42H62.4289V39.6562L62.551 36.5215L60.4514 42H59.5676L57.4729 36.5264L57.5949 39.6562V42H56.3645V34.8906H57.966ZM70.998 38.6309C70.998 39.3275 70.8776 39.9395 70.6367 40.4668C70.3958 40.9909 70.0508 41.3945 69.6016 41.6777C69.1556 41.9577 68.6413 42.0977 68.0586 42.0977C67.4824 42.0977 66.9681 41.9577 66.5156 41.6777C66.0664 41.3945 65.7181 40.9925 65.4707 40.4717C65.2266 39.9508 65.1029 39.3503 65.0996 38.6699V38.2695C65.0996 37.5762 65.2217 36.9642 65.4658 36.4336C65.7132 35.903 66.0599 35.4977 66.5059 35.2178C66.9551 34.9346 67.4694 34.793 68.0488 34.793C68.6283 34.793 69.141 34.9329 69.5869 35.2129C70.0361 35.4896 70.3828 35.89 70.627 36.4141C70.8711 36.9349 70.9948 37.542 70.998 38.2354V38.6309ZM69.7627 38.2598C69.7627 37.472 69.613 36.8682 69.3135 36.4482C69.0173 36.0283 68.5957 35.8184 68.0488 35.8184C67.515 35.8184 67.0967 36.0283 66.7939 36.4482C66.4945 36.8649 66.3415 37.4557 66.335 38.2207V38.6309C66.335 39.4121 66.4863 40.016 66.7891 40.4424C67.0951 40.8688 67.5182 41.082 68.0586 41.082C68.6055 41.082 69.0254 40.8737 69.3184 40.457C69.6146 40.0404 69.7627 39.4316 69.7627 38.6309V38.2598ZM78.073 42H76.8426V38.8408H73.6639V42H72.4285V34.8906H73.6639V37.8496H76.8426V34.8906H78.073V42ZM84.7281 35.8867H82.5113V42H81.2857V35.8867H79.0885V34.8906H84.7281V35.8867ZM89.2592 40.3447H86.5053L85.9291 42H84.6449L87.3305 34.8906H88.4389L91.1293 42H89.8402L89.2592 40.3447ZM86.852 39.3486H88.9125L87.8822 36.3994L86.852 39.3486ZM96.9346 38.9531H96.0947V42H94.8643V34.8906H96.0947V37.8789H96.7734L98.8633 34.8906H100.377L97.9355 38.2939L100.592 42H99.1074L96.9346 38.9531ZM101.475 42V34.8906H103.912C104.716 34.8906 105.328 35.0518 105.748 35.374C106.168 35.6963 106.378 36.1764 106.378 36.8145C106.378 37.14 106.29 37.4329 106.114 37.6934C105.938 37.9538 105.681 38.1556 105.343 38.2988C105.727 38.403 106.023 38.5999 106.231 38.8896C106.443 39.1761 106.549 39.5212 106.549 39.9248C106.549 40.5921 106.334 41.1048 105.904 41.4629C105.478 41.821 104.866 42 104.068 42H101.475ZM102.711 38.792V41.0137H104.083C104.47 41.0137 104.773 40.9176 104.991 40.7256C105.209 40.5335 105.318 40.2666 105.318 39.9248C105.318 39.1859 104.941 38.8083 104.185 38.792H102.711ZM102.711 37.8838H103.922C104.306 37.8838 104.605 37.7975 104.82 37.625C105.038 37.4492 105.147 37.2018 105.147 36.8828C105.147 36.5312 105.046 36.2773 104.845 36.1211C104.646 35.9648 104.335 35.8867 103.912 35.8867H102.711V37.8838ZM111.963 40.3447H109.21L108.633 42H107.349L110.035 34.8906H111.143L113.834 42H112.545L111.963 40.3447ZM109.556 39.3486H111.617L110.587 36.3994L109.556 39.3486ZM116.079 39.3584V42H114.844V34.8906H117.564C118.358 34.8906 118.988 35.0973 119.454 35.5107C119.922 35.9242 120.157 36.471 120.157 37.1514C120.157 37.848 119.927 38.39 119.468 38.7773C119.012 39.1647 118.373 39.3584 117.549 39.3584H116.079ZM116.079 38.3672H117.564C118.003 38.3672 118.339 38.2646 118.57 38.0596C118.801 37.8512 118.916 37.5518 118.916 37.1611C118.916 36.777 118.799 36.471 118.565 36.2432C118.33 36.012 118.008 35.8932 117.598 35.8867H116.079V38.3672ZM126.577 35.8867H124.361V42H123.135V35.8867H120.938V34.8906H126.577V35.8867ZM132.07 34.8906H133.306V42H132.07V36.9365L128.95 42H127.715V34.8906H128.95V39.959L132.07 34.8906ZM136.221 39.3584V42H134.985V34.8906H137.705C138.499 34.8906 139.129 35.0973 139.595 35.5107C140.063 35.9242 140.298 36.471 140.298 37.1514C140.298 37.848 140.068 38.39 139.609 38.7773C139.153 39.1647 138.514 39.3584 137.69 39.3584H136.221ZM136.221 38.3672H137.705C138.144 38.3672 138.48 38.2646 138.711 38.0596C138.942 37.8512 139.057 37.5518 139.057 37.1611C139.057 36.777 138.94 36.471 138.706 36.2432C138.471 36.012 138.149 35.8932 137.739 35.8867H136.221V38.3672ZM142.851 37.6104H144.306C144.827 37.6104 145.281 37.6999 145.669 37.8789C146.056 38.0579 146.351 38.3118 146.552 38.6406C146.754 38.9694 146.855 39.3503 146.855 39.7832C146.855 40.4473 146.629 40.9811 146.176 41.3848C145.727 41.7884 145.114 41.9935 144.336 42H141.616V34.8906H142.851V37.6104ZM148.789 42H147.558V34.8906H148.789V42ZM142.851 38.6016V41.0137H144.301C144.718 41.0137 145.042 40.9014 145.273 40.6768C145.507 40.4489 145.625 40.1478 145.625 39.7734C145.625 39.4154 145.511 39.1322 145.283 38.9238C145.055 38.7155 144.739 38.6081 144.336 38.6016H142.851Z" fill="#999999"/>
<path d="M6.30273 19.2461V26H1.50391V6.09375H9.44727C10.9694 6.09375 12.3138 6.3763 13.4805 6.94141C14.6562 7.4974 15.5632 8.29492 16.2012 9.33398C16.8483 10.3639 17.1719 11.5352 17.1719 12.8477C17.1719 14.7891 16.4746 16.3431 15.0801 17.5098C13.6947 18.6673 11.7897 19.2461 9.36523 19.2461H6.30273ZM6.30273 15.541H9.44727C10.377 15.541 11.0833 15.3086 11.5664 14.8438C12.0586 14.3789 12.3047 13.7227 12.3047 12.875C12.3047 11.9453 12.054 11.2025 11.5527 10.6465C11.0514 10.0905 10.3678 9.80794 9.50195 9.79883H6.30273V15.541ZM52.9785 18.9727H50.3809V26H45.582V6.09375H53.416C55.7767 6.09375 57.6224 6.61784 58.9531 7.66602C60.2839 8.71419 60.9492 10.1953 60.9492 12.1094C60.9492 13.4948 60.6667 14.6432 60.1016 15.5547C59.5456 16.4661 58.6706 17.2044 57.4766 17.7695L61.6328 25.7949V26H56.4922L52.9785 18.9727ZM50.3809 15.2676H53.416C54.3275 15.2676 55.0111 15.0306 55.4668 14.5566C55.9316 14.0736 56.1641 13.4036 56.1641 12.5469C56.1641 11.6901 55.9316 11.0202 55.4668 10.5371C55.002 10.0449 54.3184 9.79883 53.416 9.79883H50.3809V15.2676ZM109.99 18.5898L108.021 20.75V26H103.223V6.09375H108.021V14.8711L109.689 12.3418L113.982 6.09375H119.916L113.189 14.8984L119.916 26H114.229L109.99 18.5898Z" fill="#4990E2"/>
<path d="M28.4785 15.377L26.9609 15.2676C25.5117 15.2676 24.582 15.7233 24.1719 16.6348V26H19.5645V11.207H23.8848L24.0352 13.1074C24.8099 11.6582 25.89 10.9336 27.2754 10.9336C27.7676 10.9336 28.196 10.9883 28.5605 11.0977L28.4785 15.377ZM29.0664 18.4668C29.0664 16.9902 29.3535 15.6777 29.9277 14.5293C30.502 13.3717 31.3268 12.4831 32.4023 11.8633C33.4779 11.2435 34.7402 10.9336 36.1895 10.9336C38.4043 10.9336 40.1497 11.6217 41.4258 12.998C42.7018 14.3652 43.3398 16.2292 43.3398 18.5898V18.7539C43.3398 21.0599 42.6973 22.8919 41.4121 24.25C40.1361 25.599 38.4043 26.2734 36.2168 26.2734C34.1113 26.2734 32.4206 25.6445 31.1445 24.3867C29.8685 23.1198 29.1803 21.4062 29.0801 19.2461L29.0664 18.4668ZM33.6738 18.7539C33.6738 20.1211 33.888 21.1237 34.3164 21.7617C34.7448 22.3997 35.3783 22.7188 36.2168 22.7188C37.8574 22.7188 38.696 21.4564 38.7324 18.9316V18.4668C38.7324 15.8145 37.8848 14.4883 36.1895 14.4883C34.6491 14.4883 33.8151 15.6322 33.6875 17.9199L33.6738 18.7539ZM70.793 26.2734C68.5234 26.2734 66.6868 25.599 65.2832 24.25C63.8796 22.8919 63.1777 21.1283 63.1777 18.959V18.5762C63.1777 17.0632 63.4557 15.7279 64.0117 14.5703C64.5768 13.4128 65.3971 12.5195 66.4727 11.8906C67.5482 11.2526 68.8242 10.9336 70.3008 10.9336C72.3789 10.9336 74.0195 11.5807 75.2227 12.875C76.4258 14.1602 77.0273 15.9557 77.0273 18.2617V20.0527H67.8672C68.0312 20.8822 68.3913 21.5339 68.9473 22.0078C69.5033 22.4818 70.2233 22.7188 71.1074 22.7188C72.5658 22.7188 73.7051 22.2083 74.5254 21.1875L76.6309 23.6758C76.0566 24.4688 75.2409 25.1022 74.1836 25.5762C73.1354 26.041 72.0052 26.2734 70.793 26.2734ZM70.2734 14.4883C68.9245 14.4883 68.1224 15.3815 67.8672 17.168H72.5156V16.8125C72.5339 16.0742 72.347 15.5046 71.9551 15.1035C71.5632 14.6934 71.0026 14.4883 70.2734 14.4883ZM83.248 11.207L83.3984 12.9434C84.4466 11.6035 85.8548 10.9336 87.623 10.9336C89.4915 10.9336 90.7539 11.6764 91.4102 13.1621C92.4128 11.6764 93.862 10.9336 95.7578 10.9336C98.7565 10.9336 100.297 12.7474 100.379 16.375V26H95.7578V16.6621C95.7578 15.9056 95.6302 15.3542 95.375 15.0078C95.1198 14.6615 94.6549 14.4883 93.9805 14.4883C93.069 14.4883 92.39 14.8939 91.9434 15.7051L91.957 15.8965V26H87.3359V16.6895C87.3359 15.9147 87.2129 15.3542 86.9668 15.0078C86.7207 14.6615 86.2513 14.4883 85.5586 14.4883C84.6745 14.4883 84 14.8939 83.5352 15.7051V26H78.9277V11.207H83.248ZM126.82 20.5176L129.158 11.207H134.012L129.186 26H124.482L119.656 11.207H124.523L126.82 20.5176ZM143.5 26C143.336 25.6992 143.19 25.2572 143.062 24.6738C142.215 25.7402 141.03 26.2734 139.508 26.2734C138.113 26.2734 136.928 25.8542 135.953 25.0156C134.978 24.168 134.49 23.1061 134.49 21.8301C134.49 20.2259 135.083 19.0137 136.268 18.1934C137.452 17.373 139.175 16.9629 141.436 16.9629H142.857V16.1836C142.857 14.8255 142.27 14.1465 141.094 14.1465C140 14.1465 139.453 14.6842 139.453 15.7598H134.846C134.846 14.3288 135.452 13.1667 136.664 12.2734C137.885 11.3802 139.439 10.9336 141.326 10.9336C143.213 10.9336 144.703 11.3939 145.797 12.3145C146.891 13.235 147.451 14.4974 147.479 16.1016V22.6504C147.497 24.0085 147.706 25.0475 148.107 25.7676V26H143.5ZM140.615 22.9922C141.189 22.9922 141.663 22.8691 142.037 22.623C142.42 22.377 142.693 22.099 142.857 21.7891V19.4238H141.518C139.913 19.4238 139.111 20.1439 139.111 21.584C139.111 22.0033 139.253 22.3451 139.535 22.6094C139.818 22.8646 140.178 22.9922 140.615 22.9922Z" fill="#333333"/>
</svg>
