<svg width="50" height="50" viewBox="0 0 50 50" fill="none" xmlns="http://www.w3.org/2000/svg">
<path d="M3.7879 28.1061H27.197C27.6516 28.1061 27.9546 27.803 27.9546 27.3485V19.7728C27.9546 19.3182 27.5757 19.0153 27.197 19.0153H3.7879C3.33332 19.0153 3.03036 19.3183 3.03036 19.7728V27.3485C3.03036 27.803 3.33332 28.1061 3.7879 28.1061ZM4.54543 20.5303H26.4394V26.5909H4.54543V20.5303Z" fill="#4990E2"/>
<path d="M7.42422 29.4697H4.24246C3.78788 29.4697 3.48492 29.7728 3.48492 30.2273V33.3334C3.48492 33.7879 3.78798 34.0909 4.24246 34.0909H7.34856C7.80314 34.0909 8.1061 33.7878 8.1061 33.3334V30.1515C8.18186 29.7728 7.80304 29.4697 7.42422 29.4697ZM4.99999 32.5758V30.9091H6.59093V32.5758H4.99999Z" fill="#4990E2"/>
<path d="M7.42422 35.8334H4.24246C3.78788 35.8334 3.48492 36.1364 3.48492 36.5909V39.7728C3.48492 40.2274 3.78798 40.5303 4.24246 40.5303H7.34856C7.80314 40.5303 8.1061 40.2273 8.1061 39.7728V36.5909C8.18186 36.1364 7.80304 35.8334 7.42422 35.8334ZM4.99999 39.0152V37.3485H6.59093V39.0152H4.99999Z" fill="#4990E2"/>
<path d="M7.42422 42.197H4.24246C3.78788 42.197 3.48492 42.5001 3.48492 42.9546V46.1364C3.48492 46.591 3.78798 46.894 4.24246 46.894H7.34856C7.80314 46.894 8.1061 46.5909 8.1061 46.1364V42.9546C8.18186 42.5758 7.80304 42.197 7.42422 42.197ZM4.99999 45.3789V43.7122H6.59093V45.3789H4.99999Z" fill="#4990E2"/>
<path d="M13.8636 29.4697H10.6817C10.2271 29.4697 9.92419 29.7728 9.92419 30.2273V33.3334C9.92419 33.7879 10.2272 34.0909 10.6817 34.0909H13.8636C14.3182 34.0909 14.6211 33.7878 14.6211 33.3334V30.1515C14.6212 29.7728 14.2424 29.4697 13.8636 29.4697ZM13.1061 32.5758H11.4394V30.9091H13.1061V32.5758Z" fill="#4990E2"/>
<path d="M13.8636 35.8334H10.6817C10.2271 35.8334 9.92419 36.1364 9.92419 36.5909V39.7728C9.92419 40.2274 10.2272 40.5303 10.6817 40.5303H13.8636C14.3182 40.5303 14.6211 40.2273 14.6211 39.7728V36.5909C14.6212 36.1364 14.2424 35.8334 13.8636 35.8334ZM13.1061 39.0152H11.4394V37.3485H13.1061V39.0152Z" fill="#4990E2"/>
<path d="M13.8636 42.197H10.6817C10.2271 42.197 9.92419 42.5001 9.92419 42.9546V46.1364C9.92419 46.591 10.2272 46.894 10.6817 46.894H13.8636C14.3182 46.894 14.6211 46.5909 14.6211 46.1364V42.9546C14.6212 42.5758 14.2424 42.197 13.8636 42.197ZM13.1061 45.3789H11.4394V43.7122H13.1061V45.3789Z" fill="#4990E2"/>
<path d="M20.303 29.4697H17.1969C16.7423 29.4697 16.4394 29.7728 16.4394 30.2273V33.3334C16.4394 33.7879 16.7424 34.0909 17.1969 34.0909H20.303C20.7576 34.0909 21.0605 33.7878 21.0605 33.3334V30.1515C21.0606 29.7728 20.6818 29.4697 20.303 29.4697ZM19.5455 32.5758H17.9545V30.9091H19.5455V32.5758Z" fill="#4990E2"/>
<path d="M20.303 35.8334H17.1969C16.7423 35.8334 16.4394 36.1364 16.4394 36.5909V39.7728C16.4394 40.2274 16.7424 40.5303 17.1969 40.5303H20.303C20.7576 40.5303 21.0605 40.2273 21.0605 39.7728V36.5909C21.0606 36.1364 20.6818 35.8334 20.303 35.8334ZM19.5455 39.0152H17.9545V37.3485H19.5455V39.0152Z" fill="#4990E2"/>
<path d="M20.303 42.197H17.1969C16.7423 42.197 16.4394 42.5001 16.4394 42.9546V46.1364C16.4394 46.591 16.7424 46.894 17.1969 46.894H20.303C20.7576 46.894 21.0605 46.5909 21.0605 46.1364V42.9546C21.0606 42.5758 20.6818 42.197 20.303 42.197ZM19.5455 45.3789H17.9545V43.7122H19.5455V45.3789Z" fill="#4990E2"/>
<path d="M26.6667 29.4697H23.5605C23.106 29.4697 22.803 29.7728 22.803 30.2273V33.3334C22.803 33.7879 23.1061 34.0909 23.5605 34.0909H26.6667C27.1212 34.0909 27.4242 33.7878 27.4242 33.3334V30.1515C27.4243 29.7728 27.1212 29.4697 26.6667 29.4697ZM25.9091 32.5758H24.3182V30.9091H25.9091V32.5758Z" fill="#4990E2"/>
<path d="M26.6667 35.8334H23.5605C23.106 35.8334 22.803 36.1364 22.803 36.5909V46.1364C22.803 46.591 23.1061 46.8939 23.5605 46.8939H26.6667C27.1212 46.8939 27.4242 46.5909 27.4242 46.1364V36.5909C27.4243 36.1364 27.1212 35.8334 26.6667 35.8334ZM25.9091 45.3789H24.3182V37.3485H25.9091V45.3789Z" fill="#4990E2"/>
<path d="M49.7727 13.1818L36.2879 0.227291C36.1364 0.0757635 35.9091 0 35.7576 0H9.69693C9.24234 0 8.93939 0.303054 8.93939 0.757535V15.7575H0.757535C0.302953 15.7575 0 16.0606 0 16.515V49.2424C0 49.6969 0.303054 49.9999 0.757535 49.9999C1.21202 49.9999 2.72719 49.9999 49.2424 49.9999C49.6969 49.9999 49.9999 49.6968 49.9999 49.2424C49.9999 46.0605 49.9999 56.1363 49.9999 13.7121C50 13.5606 49.9242 13.2576 49.7727 13.1818ZM36.5152 2.49999L47.3485 12.8788H36.5152V2.49999ZM29.4697 48.4848H1.51517V17.2728H29.4697V48.4848ZM48.4848 48.4848H30.9849V16.5151C30.9849 16.0606 30.6818 15.7576 30.2273 15.7576H10.4546V1.51517H35V13.7122C35 14.1668 35.3031 14.4697 35.7576 14.4697H48.4848C48.4848 40.4546 48.4848 48.1061 48.4848 48.4848Z" fill="#4990E2"/>
<path d="M29.7727 4.77271H14.5455C14.0909 4.77271 13.7879 5.07576 13.7879 5.53024C13.7879 5.98472 14.091 6.28778 14.5455 6.28778H29.7727C30.2273 6.28778 30.5302 5.98472 30.5302 5.53024C30.5302 5.07576 30.2273 4.77271 29.7727 4.77271Z" fill="#4990E2"/>
<path d="M29.7727 9.24243H14.5455C14.0909 9.24243 13.7879 9.54549 13.7879 9.99997C13.7879 10.4544 14.091 10.7575 14.5455 10.7575H29.7727C30.2273 10.7575 30.5302 10.4544 30.5302 9.99997C30.5302 9.54549 30.2273 9.24243 29.7727 9.24243Z" fill="#4990E2"/>
<path d="M39.8485 31.9697C35.8333 31.9697 32.5758 35.2273 32.5758 39.3182C32.5758 43.3333 35.8333 46.6666 39.8485 46.6666C43.8637 46.6666 47.1212 43.4091 47.1212 39.3182C47.1212 35.2274 43.8637 31.9697 39.8485 31.9697ZM39.8485 45.0758C36.6666 45.0758 34.0909 42.5001 34.0909 39.2424C34.0909 35.9848 36.6666 33.4091 39.8485 33.4091C43.0304 33.4091 45.6061 35.9849 45.6061 39.2424C45.6061 42.5 43.0304 45.0758 39.8485 45.0758Z" fill="#4990E2"/>
<path d="M42.1212 39.3939C41.7424 39.0151 41.1363 38.7121 40.3029 38.5606V36.5152C40.8333 36.5909 41.3635 36.8182 41.8181 37.1212L42.4999 36.1363C41.8181 35.6818 41.0605 35.3788 40.3029 35.303V34.7727H39.6212V35.303C38.9394 35.303 38.3333 35.5303 37.9545 35.9848C37.4999 36.3636 37.2727 36.8939 37.2727 37.5C37.2727 38.106 37.4242 38.5606 37.8031 38.9394C38.1819 39.2424 38.7879 39.5455 39.5455 39.6969V41.8181C38.9394 41.7423 38.2576 41.4393 37.7273 40.909L36.9698 41.8181C37.7273 42.4999 38.6365 42.8787 39.6213 43.0302V43.7878H40.303V43.0302C41.0606 43.0302 41.5909 42.8029 42.0455 42.3485C42.5001 41.9696 42.7273 41.4394 42.7273 40.8333C42.7273 40.2273 42.5 39.6969 42.1212 39.3939ZM39.6212 38.3333C39.2424 38.1818 38.9393 38.106 38.7879 37.9545C38.6365 37.8029 38.5606 37.6514 38.5606 37.3485C38.5606 37.1212 38.6364 36.8939 38.8636 36.7424C39.0152 36.5908 39.3182 36.5151 39.6212 36.4393V38.3333ZM41.0606 41.5152C40.8333 41.6667 40.606 41.8182 40.2273 41.8182V39.8486C40.6819 40.0001 40.9848 40.1516 41.1363 40.2274C41.2879 40.3789 41.3636 40.6062 41.3636 40.8335C41.3636 41.1363 41.2879 41.3636 41.0606 41.5152Z" fill="#4990E2"/>
<path d="M34.8485 25.9091C34.7727 25.9091 34.8485 25.9091 34.8485 25.9849L31.7424 32.5758C31.5909 32.8789 31.6666 33.2576 31.9697 33.4849C32.197 33.7122 32.5758 33.7122 32.8787 33.5606L38.8636 29.4697L38.9393 29.3939C38.9393 29.3939 39.0151 29.3939 39.0151 29.3182L47.3485 19.5455C48.3333 18.4091 48.1818 16.7424 47.0454 15.7576C46.5908 15.3788 45.9848 15.1516 45.303 15.1516C44.5454 15.1516 43.7878 15.4547 43.2575 16.0607L34.9242 25.8334C34.9243 25.8334 34.9243 25.9091 34.8485 25.9091ZM44.4697 17.0455C44.8485 16.5909 45.606 16.5152 46.0606 16.894C46.5909 17.3486 46.5909 18.0303 46.2121 18.5607L38.3333 27.7273L36.5909 26.2122L44.4697 17.0455ZM37.197 28.7122L34.3181 30.6818L35.8333 27.5L37.197 28.7122Z" fill="#4990E2"/>
</svg>
