<svg width="50" height="50" viewBox="0 0 50 50" fill="none" xmlns="http://www.w3.org/2000/svg">
<path d="M49.2188 29.6875H33.5938V28.125H34.375C34.8064 28.125 35.1562 27.7752 35.1562 27.3438C35.1562 26.9123 34.8064 26.5625 34.375 26.5625H33.5938V25.7812C33.5938 24.0554 34.9929 22.6562 36.7188 22.6562C38.4446 22.6562 39.8438 24.0554 39.8438 25.7812C39.8438 26.2127 40.1936 26.5625 40.625 26.5625C41.0564 26.5625 41.4062 26.2127 41.4062 25.7812C41.4062 23.1924 39.3076 21.0938 36.7188 21.0938C34.1299 21.0938 32.0312 23.1924 32.0312 25.7812V29.6875H18.9219C19.312 29.2604 19.5292 28.7034 19.5312 28.125V23.4375C19.5312 23.0061 19.1814 22.6562 18.75 22.6562H7.03125C6.5998 22.6562 6.25 23.0061 6.25 23.4375V28.125C6.25205 28.7034 6.46924 29.2604 6.85938 29.6875H0.78125C0.349805 29.6875 0 30.0373 0 30.4688V49.2188C0 49.6502 0.349805 50 0.78125 50H49.2188C49.6502 50 50 49.6502 50 49.2188V30.4688C50 30.0373 49.6502 29.6875 49.2188 29.6875ZM7.8125 24.2188H17.9688V28.125C17.9688 28.5564 17.6189 28.9062 17.1875 28.9062H8.59375C8.1623 28.9062 7.8125 28.5564 7.8125 28.125V24.2188ZM12.5 48.4375H1.5625V39.0625H12.5V48.4375ZM12.5 37.5H1.5625V31.25H3.90625C3.90625 31.6814 4.25605 32.0312 4.6875 32.0312H9.375C9.80645 32.0312 10.1562 31.6814 10.1562 31.25H12.5V37.5ZM35.9375 48.4375H14.0625V31.25H35.9375V48.4375ZM48.4375 48.4375H37.5V39.0625H48.4375V48.4375ZM48.4375 37.5H37.5V31.25H39.8438C39.8438 31.6814 40.1936 32.0312 40.625 32.0312H45.3125C45.7439 32.0312 46.0938 31.6814 46.0938 31.25H48.4375V37.5Z" fill="#4990E2"/>
<path d="M15.625 42.9688H34.375C34.8064 42.9688 35.1562 42.6189 35.1562 42.1875V34.375C35.1562 33.9436 34.8064 33.5938 34.375 33.5938H15.625C15.1936 33.5938 14.8438 33.9436 14.8438 34.375V42.1875C14.8438 42.6189 15.1936 42.9688 15.625 42.9688ZM16.4062 35.1562H33.5938V41.4062H16.4062V35.1562Z" fill="#4990E2"/>
<path d="M29.6875 45.3125H20.3125C19.8811 45.3125 19.5312 45.6623 19.5312 46.0938C19.5312 46.5252 19.8811 46.875 20.3125 46.875H29.6875C30.1189 46.875 30.4688 46.5252 30.4688 46.0938C30.4688 45.6623 30.1189 45.3125 29.6875 45.3125Z" fill="#4990E2"/>
<path d="M8.59375 11.7188H41.4062C41.8377 11.7188 42.1875 11.3689 42.1875 10.9375V0.78125C42.1875 0.349805 41.8377 0 41.4062 0H8.59375C8.1623 0 7.8125 0.349805 7.8125 0.78125V10.9375C7.8125 11.3689 8.1623 11.7188 8.59375 11.7188ZM25.7812 1.5625H40.625V10.1562H25.7812V1.5625ZM9.375 1.5625H24.2188V10.1562H9.375V1.5625Z" fill="#4990E2"/>
<path d="M19.5312 5.46875H13.2812C12.8498 5.46875 12.5 5.81855 12.5 6.25C12.5 6.68145 12.8498 7.03125 13.2812 7.03125H19.5312C19.9627 7.03125 20.3125 6.68145 20.3125 6.25C20.3125 5.81855 19.9627 5.46875 19.5312 5.46875Z" fill="#4990E2"/>
<path d="M36.7188 5.46875H30.4688C30.0373 5.46875 29.6875 5.81855 29.6875 6.25C29.6875 6.68145 30.0373 7.03125 30.4688 7.03125H36.7188C37.1502 7.03125 37.5 6.68145 37.5 6.25C37.5 5.81855 37.1502 5.46875 36.7188 5.46875Z" fill="#4990E2"/>
<path d="M8.90625 19.2969C8.25869 19.6697 7.84629 20.3473 7.8125 21.0938C7.8125 21.5252 8.1623 21.875 8.59375 21.875C9.0252 21.875 9.375 21.5252 9.375 21.0938C9.375 20.9289 9.45313 20.8422 9.84375 20.5469C10.4913 20.174 10.9037 19.4965 10.9375 18.75C10.9037 18.0035 10.4913 17.326 9.84375 16.9531C9.44922 16.657 9.375 16.5703 9.375 16.4062C9.375 16.2422 9.45313 16.1562 9.84375 15.8594C10.4913 15.4865 10.9037 14.809 10.9375 14.0625C10.9375 13.6311 10.5877 13.2812 10.1562 13.2812C9.7248 13.2812 9.375 13.6311 9.375 14.0625C9.375 14.2258 9.29687 14.3125 8.90625 14.6094C8.25869 14.9822 7.84629 15.6598 7.8125 16.4062C7.84629 17.1527 8.25869 17.8303 8.90625 18.2031C9.29687 18.4992 9.375 18.5859 9.375 18.75C9.375 18.9141 9.29687 19 8.90625 19.2969Z" fill="#4990E2"/>
<path d="M13.75 15.8594C14.3976 15.4865 14.81 14.809 14.8438 14.0625C14.8438 13.6311 14.4939 13.2812 14.0625 13.2812C13.6311 13.2812 13.2812 13.6311 13.2812 14.0625C13.2812 14.2258 13.2031 14.3125 12.8125 14.6094C12.1649 14.9822 11.7525 15.6598 11.7188 16.4062C11.7525 17.1527 12.1649 17.8303 12.8125 18.2031C13.2031 18.4992 13.2812 18.5859 13.2812 18.75C13.2812 18.9141 13.2031 19.0016 12.8125 19.2969C12.1649 19.6697 11.7525 20.3473 11.7188 21.0938C11.7188 21.5252 12.0686 21.875 12.5 21.875C12.9314 21.875 13.2812 21.5252 13.2812 21.0938C13.2812 20.9289 13.3594 20.8422 13.75 20.5469C14.3976 20.174 14.81 19.4965 14.8438 18.75C14.81 18.0035 14.3976 17.326 13.75 16.9531C13.3594 16.657 13.2812 16.5703 13.2812 16.4062C13.2812 16.2422 13.3594 16.1539 13.75 15.8594Z" fill="#4990E2"/>
<path d="M17.6563 15.8594C18.3038 15.4865 18.7162 14.809 18.75 14.0625C18.75 13.6311 18.4002 13.2812 17.9688 13.2812C17.5373 13.2812 17.1875 13.6311 17.1875 14.0625C17.1875 14.2258 17.1094 14.3125 16.7187 14.6094C16.0712 14.9822 15.6588 15.6598 15.625 16.4062C15.6588 17.1527 16.0712 17.8303 16.7187 18.2031C17.1094 18.4992 17.1875 18.5859 17.1875 18.75C17.1875 18.9141 17.1094 19.0016 16.7187 19.2969C16.0712 19.6697 15.6588 20.3473 15.625 21.0938C15.625 21.5252 15.9748 21.875 16.4062 21.875C16.8377 21.875 17.1875 21.5252 17.1875 21.0938C17.1875 20.9289 17.2656 20.8422 17.6563 20.5469C18.3038 20.174 18.7162 19.4965 18.75 18.75C18.7162 18.0035 18.3038 17.326 17.6563 16.9531C17.2656 16.657 17.1875 16.5703 17.1875 16.4062C17.1875 16.2422 17.2656 16.1539 17.6563 15.8594Z" fill="#4990E2"/>
</svg>
