<svg width="50" height="50" viewBox="0 0 50 50" fill="none" xmlns="http://www.w3.org/2000/svg">
<g clip-path="url(#clip0)">
<path d="M32.0776 16.9462C32.0776 16.5417 31.7497 16.2137 31.3451 16.2137H22.1746C21.7701 16.2137 21.4422 16.5417 21.4422 16.9462C21.4422 17.3507 21.7701 17.6786 22.1746 17.6786H31.3451C31.7496 17.6786 32.0776 17.3507 32.0776 16.9462Z" fill="#4990E2"/>
<path d="M10.6419 29.6717C10.6419 30.7418 11.5125 31.6123 12.5825 31.6123H16.9304C18.0004 31.6123 18.871 30.7417 18.871 29.6717V25.344L19.5518 24.6633C19.8378 24.3772 19.8378 23.9135 19.5518 23.6275C19.2657 23.3414 18.802 23.3415 18.516 23.6275L18.2441 23.8995C17.8981 23.5802 17.4374 23.3832 16.9305 23.3832H12.5826C11.5125 23.3832 10.642 24.2538 10.642 25.3238V29.6717H10.6419ZM12.1068 25.3238C12.1068 25.0615 12.3202 24.848 12.5825 24.848H16.9304C17.0333 24.848 17.128 24.8817 17.206 24.9375L14.9539 27.1895L14.4348 26.6704C14.1487 26.3844 13.685 26.3844 13.399 26.6704C13.113 26.9564 13.113 27.4202 13.399 27.7061L14.4361 28.7432C14.5791 28.8863 14.7666 28.9578 14.954 28.9578C15.1414 28.9578 15.3289 28.8863 15.4719 28.7432L17.4063 26.8089V29.6717C17.4063 29.9341 17.1928 30.1474 16.9305 30.1474H12.5826C12.3202 30.1474 12.1068 29.934 12.1068 29.6717V25.3238H12.1068Z" fill="#4990E2"/>
<path d="M22.1746 26.7656C21.7701 26.7656 21.4422 27.0936 21.4422 27.498C21.4422 27.9025 21.7701 28.2305 22.1746 28.2305H25.5253C25.9299 28.2305 26.2577 27.9025 26.2577 27.498C26.2577 27.0936 25.9299 26.7656 25.5253 26.7656H22.1746Z" fill="#4990E2"/>
<path d="M10.6419 40.2233C10.6419 41.2934 11.5125 42.1639 12.5825 42.1639H16.9304C18.0004 42.1639 18.871 41.2933 18.871 40.2233V35.8756C18.871 34.8054 18.0004 33.9349 16.9304 33.9349H12.5825C11.5124 33.9349 10.6419 34.8055 10.6419 35.8756V40.2233ZM12.1068 35.8755C12.1068 35.6131 12.3202 35.3997 12.5825 35.3997H16.9304C17.1927 35.3997 17.4062 35.6132 17.4062 35.8755V40.2232C17.4062 40.4856 17.1927 40.699 16.9304 40.699H12.5825C12.3201 40.699 12.1068 40.4855 12.1068 40.2232V35.8755Z" fill="#4990E2"/>
<path d="M46.2344 17.1335C46.2316 16.4255 45.9557 15.5524 45.3128 14.9111C44.1452 13.6729 41.8701 13.685 40.6775 15.1038V6.2002C40.6775 4.5374 39.3246 3.18457 37.6618 3.18457H30.6927V1.74541C30.6928 0.783008 29.9098 0 28.9474 0H15.4959C14.5335 0 13.7504 0.783008 13.7504 1.74541V3.18457H6.78107C5.11827 3.18457 3.76544 4.5374 3.76544 6.2002V46.9844C3.76544 48.6472 5.11827 50 6.78107 50H37.6619C39.3247 50 40.6776 48.6472 40.6776 46.9844V27.4978C40.6776 27.0933 40.3497 26.7653 39.9451 26.7653C39.5405 26.7653 39.2127 27.0933 39.2127 27.4978V46.9844C39.2127 47.8395 38.517 48.5352 37.6619 48.5352H6.78107C5.92599 48.5352 5.23029 47.8395 5.23029 46.9844V6.2002C5.23029 5.34512 5.92599 4.64941 6.78107 4.64941H11.0917V6.17647C11.0485 7.96016 12.8321 9.58809 14.7234 9.21904L21.4806 8.0168C21.9676 7.93018 22.4614 7.93018 22.9482 8.0166L29.7205 9.21982C31.4159 9.59746 33.4205 8.07275 33.3516 6.17715V4.64941H36.2948V19.487L24.0543 31.7281C23.3494 32.3894 22.7727 33.1869 22.4525 34.2872L21.4688 37.855C21.4414 38.1666 21.4635 38.8881 22.3695 38.7558L25.9364 37.7723C26.8288 37.5452 27.8237 36.9112 28.4963 36.1722L36.2946 28.3733V45.4316C36.2946 45.5334 36.2118 45.6162 36.11 45.6162H8.3338C8.23204 45.6162 8.14923 45.5334 8.14923 45.4316V7.37148C8.14923 6.96699 7.8213 6.63906 7.41681 6.63906C7.01232 6.63906 6.68439 6.96699 6.68439 7.37148V45.4316C6.68439 46.3411 7.42433 47.0811 8.3338 47.0811H36.1102C37.0196 47.0811 37.7597 46.3411 37.7597 45.4316V26.9084L45.3137 19.3544H45.3136C45.819 18.8775 46.2439 17.9572 46.2344 17.1335ZM15.2152 1.74541C15.2152 1.59072 15.3411 1.46484 15.4959 1.46484H28.9474C29.1021 1.46484 29.2279 1.59072 29.2279 1.74541V3.18457H15.2152V1.74541ZM31.8866 6.17705C31.9014 7.05371 31.0239 7.9708 29.9767 7.77744L23.2043 6.57422C22.8761 6.51592 22.5454 6.48672 22.2148 6.48672C21.8837 6.48672 21.5527 6.51592 21.2238 6.57441L14.4668 7.77676C13.606 7.94492 12.5495 7.24121 12.5566 6.17647V4.64961H31.8866V6.17705ZM44.2777 18.3183L42.1138 20.4822L39.7424 18.1108L41.9064 15.9468C42.4799 15.3716 43.5693 15.2429 44.2767 15.9468C44.8085 16.4801 45.0205 17.5832 44.2777 18.3183ZM27.9784 34.6185L25.607 32.2471L38.7067 19.1468L41.078 21.5182L27.9784 34.6185ZM37.7596 4.65439C38.5692 4.70518 39.2127 5.37813 39.2127 6.20029V16.5687L37.7596 18.0222V4.65439ZM23.8646 34.6767C23.9149 34.5569 24.0182 33.9855 24.5842 33.2958L26.9287 35.6403C26.3791 36.2668 24.0699 36.7479 23.2238 37.0007L23.8646 34.6767Z" fill="#4990E2"/>
<path d="M19.5517 13.0175C19.2656 12.7314 18.8019 12.7315 18.5159 13.0175L18.2134 13.3201C17.8709 13.0172 17.4225 12.8315 16.9304 12.8315H12.5825C11.5124 12.8315 10.6419 13.7021 10.6419 14.7721V19.12C10.6419 20.19 11.5125 21.0606 12.5825 21.0606H16.9304C18.0004 21.0606 18.871 20.19 18.871 19.12V14.7721C18.871 14.7599 18.8695 14.748 18.8692 14.7359L19.5518 14.0533C19.8378 13.7673 19.8378 13.3036 19.5517 13.0175ZM17.4062 19.12C17.4062 19.3823 17.1927 19.5958 16.9304 19.5958H12.5825C12.3201 19.5958 12.1068 19.3823 12.1068 19.12V14.7721C12.1068 14.5097 12.3202 14.2964 12.5825 14.2964H16.9304C17.0181 14.2964 17.0993 14.3218 17.1699 14.3634L14.9538 16.5796L14.4347 16.0604C14.1486 15.7744 13.6849 15.7744 13.3989 16.0604C13.1129 16.3464 13.1129 16.8102 13.3989 17.0962L14.4361 18.1333C14.579 18.2763 14.7665 18.3478 14.9539 18.3478C15.1413 18.3478 15.3288 18.2763 15.4718 18.1333L17.4062 16.1989V19.12Z" fill="#4990E2"/>
</g>
<defs>
<clipPath id="clip0">
<rect width="50" height="50" fill="white"/>
</clipPath>
</defs>
</svg>
