<svg width="50" height="50" viewBox="0 0 50 50" fill="none" xmlns="http://www.w3.org/2000/svg">
<g clip-path="url(#clip0)">
<path d="M45.7043 4.02201C38.2213 0.427874 25.5468 0.0190166 24.9858 0C24.4533 0 11.7787 0.427874 4.2957 4.02201C3.96552 4.17926 3.75479 4.51205 3.75372 4.87776V25.3396C3.75372 25.9672 4.13405 40.8287 24.672 49.9186C24.9172 50.0272 25.197 50.0272 25.4422 49.9186C45.904 40.8287 46.2368 25.9482 46.2463 25.3301V4.87776C46.2453 4.51205 46.0345 4.17926 45.7043 4.02201ZM44.3447 25.3206C44.3447 25.4632 43.9929 39.3929 24.9858 48.0074C6.05473 39.45 5.63637 25.9006 5.62686 25.3301V5.48629C12.625 2.36757 24.3297 1.92068 24.9858 1.90166C25.6418 1.88264 37.3465 2.36757 44.3447 5.48629V25.3206Z" fill="#4990E2"/>
<path d="M41.2164 8.5004C35.3593 5.64791 25.4612 5.36266 25.0523 5.35315H24.9858C24.5389 5.36266 14.6407 5.67643 8.82164 8.5004C8.49146 8.65764 8.28073 8.99043 8.27966 9.35614V25.2635C8.27966 25.758 8.58393 37.4437 24.6339 44.5654C24.8791 44.674 25.1589 44.674 25.4041 44.5654C41.4636 37.4437 41.7584 25.758 41.7584 25.254V9.35614C41.7573 8.99043 41.5466 8.65764 41.2164 8.5004ZM10.1433 9.96467C15.563 7.61612 24.4057 7.27383 24.9858 7.2453C28.6506 7.40147 32.2941 7.88521 35.8728 8.69056L10.1433 24.6455V9.96467ZM39.8282 25.2445C39.8187 25.6819 39.4859 36.0459 24.9858 42.6542C21.1306 40.9988 17.6697 38.5457 14.8309 35.4564L39.8282 19.8913V25.2445ZM13.5758 33.9541C11.9593 31.8319 10.8354 29.3765 10.2859 26.7658L38.2974 9.40369C38.8108 9.57484 39.3148 9.765 39.7902 9.96467L39.8282 17.6569L13.5758 33.9541Z" fill="#4990E2"/>
</g>
<defs>
<clipPath id="clip0">
<rect width="50" height="50" fill="white"/>
</clipPath>
</defs>
</svg>
