<svg width="50" height="50" viewBox="0 0 50 50" fill="none" xmlns="http://www.w3.org/2000/svg">
<g clip-path="url(#clip0)">
<path d="M34.1867 21.7437H24.5932C22.5816 21.7437 20.945 23.3802 20.945 25.3916V35.1447C20.945 37.1569 22.5816 38.7934 24.5932 38.7934H34.1867C36.1983 38.7934 37.8349 37.1569 37.8349 35.1447V25.3916C37.8349 23.3802 36.1983 21.7437 34.1867 21.7437ZM36.1112 35.1445C36.1112 36.206 35.248 37.069 34.187 37.069H24.5935C23.5327 37.069 22.6692 36.206 22.6692 35.1445V25.3914C22.6692 24.3306 23.5327 23.4676 24.5935 23.4676H34.187C35.2477 23.4676 36.1112 24.3306 36.1112 25.3914V35.1445Z" fill="#4990E2"/>
<path d="M24.8001 9.48291H13.9931C11.9814 9.48291 10.3448 11.1195 10.3448 13.1316V23.9377C10.3448 25.9498 11.9814 27.5864 13.9931 27.5864H21.6115C22.0874 27.5864 22.4735 27.2005 22.4735 26.7244C22.4735 26.2483 22.0874 25.8624 21.6115 25.8624H13.9931C12.9323 25.8624 12.0688 24.9994 12.0688 23.9379V13.1316C12.0688 12.0701 12.9321 11.2071 13.9931 11.2071H24.8001C25.8609 11.2071 26.7244 12.0701 26.7244 13.1316V22.1718C26.7244 22.6481 27.1105 23.0337 27.5863 23.0337C28.0622 23.0337 28.4483 22.6481 28.4483 22.1718V13.1316C28.4483 11.1195 26.8117 9.48291 24.8001 9.48291Z" fill="#4990E2"/>
<path d="M3.4482 5.99829C2.97238 5.99829 2.58621 6.38395 2.58621 6.86028V43.7625C2.58621 44.2389 2.97238 44.6245 3.4482 44.6245C3.92402 44.6245 4.31018 44.2391 4.31018 43.7625V6.86028C4.31044 6.38395 3.92427 5.99829 3.4482 5.99829Z" fill="#4990E2"/>
<path d="M43.8673 45.6898H6.10311C5.62728 45.6898 5.24112 46.0757 5.24112 46.5518C5.24112 47.0281 5.62728 47.4138 6.10311 47.4138H43.8673C44.3437 47.4138 44.7293 47.0279 44.7293 46.5518C44.7293 46.0755 44.3432 45.6898 43.8673 45.6898Z" fill="#4990E2"/>
<path d="M46.862 5C46.3862 5 46 5.38566 46 5.86199V43.5548C46 44.0311 46.3862 44.4167 46.862 44.4167C47.3378 44.4167 47.724 44.0313 47.724 43.5548V5.86199C47.724 5.38566 47.3378 5 46.862 5Z" fill="#4990E2"/>
<path d="M43.8673 2.58618H6.17406C5.69824 2.58618 5.31207 2.97184 5.31207 3.44817C5.31207 3.9245 5.69824 4.31015 6.17406 4.31015H43.8673C44.3436 4.31015 44.7293 3.9245 44.7293 3.44817C44.7293 2.97184 44.3431 2.58618 43.8673 2.58618Z" fill="#4990E2"/>
<path d="M6.03441 0H0.861986C0.386164 0 0 0.385659 0 0.861986V6.03441C0 6.51074 0.386164 6.89639 0.861986 6.89639H6.03441C6.51023 6.89639 6.89639 6.51074 6.89639 6.03441V0.861986C6.89665 0.385659 6.51023 0 6.03441 0ZM5.17242 5.17242H1.72423V1.72423H5.17242V5.17242Z" fill="#4990E2"/>
<path d="M49.138 0H43.9656C43.4898 0 43.1036 0.385659 43.1036 0.861986V6.03441C43.1036 6.51074 43.4898 6.89639 43.9656 6.89639H49.138C49.6138 6.89639 50 6.51074 50 6.03441V0.861986C50 0.385659 49.6138 0 49.138 0ZM48.276 5.17242H44.8278V1.72423H48.276V5.17242Z" fill="#4990E2"/>
<path d="M6.03441 43.1036H0.861986C0.386164 43.1036 0 43.4893 0 43.9656V49.138C0 49.6144 0.386164 50 0.861986 50H6.03441C6.51023 50 6.89639 49.6144 6.89639 49.138V43.9656C6.89665 43.4893 6.51023 43.1036 6.03441 43.1036ZM5.17242 48.2761H1.72423V44.8279H5.17242V48.2761Z" fill="#4990E2"/>
<path d="M49.138 43.1036H43.9656C43.4898 43.1036 43.1036 43.4893 43.1036 43.9656V49.138C43.1036 49.6144 43.4898 50 43.9656 50H49.138C49.6138 50 50 49.6144 50 49.138V43.9656C50 43.4893 49.6138 43.1036 49.138 43.1036ZM48.276 48.2761H44.8278V44.8279H48.276V48.2761Z" fill="#4990E2"/>
</g>
<defs>
<clipPath id="clip0">
<rect width="50" height="50" fill="white"/>
</clipPath>
</defs>
</svg>
