<svg width="50" height="50" viewBox="0 0 50 50" fill="none" xmlns="http://www.w3.org/2000/svg">
<g clip-path="url(#clip0)">
<path d="M39.959 30.3707C39.8945 30.3516 40.5258 30.4787 30.4092 28.5103V26.2638C32.8568 24.6136 34.1282 22.2656 34.3826 19.6896C35.6094 19.6396 36.5917 18.626 36.5917 17.3878C36.5913 16.0755 36.5921 15.6364 36.591 15.5914C38.6669 14.7682 38.303 11.718 36.0977 11.4052V10.6342C36.0977 4.77066 31.3271 0 25.4631 0H24.5632C18.6996 0 13.929 4.77066 13.929 10.6346V11.4052C11.7279 11.7176 11.3567 14.7675 13.4354 15.5914C13.4346 15.6364 13.435 16.0759 13.435 17.3878C13.435 18.6264 14.4173 19.6396 15.6437 19.6899C15.8978 22.2603 17.157 24.6052 19.6171 26.2638V28.5103C9.47914 30.4829 10.1322 30.3516 10.0674 30.3707C5.39589 31.7459 3.125 34.2896 3.125 38.147V46.6862C3.125 48.5134 4.61159 50 6.43921 50H43.5875C45.4147 50 46.9013 48.5134 46.9013 46.6862V38.147C46.9013 34.2896 44.6308 31.7459 39.959 30.3707ZM45.4365 38.147V40.2145H39.933V31.8947C43.7347 33.1039 45.4365 35.0441 45.4365 38.147ZM29.7962 2.55508C30.1678 2.75536 30.5241 2.98004 30.8628 3.22762V4.42963C30.5836 4.50401 30.0758 4.50401 29.7962 4.42963V2.55508ZM24.4801 1.46561C24.5518 1.46484 25.4749 1.46484 25.5466 1.46561V6.67648C25.267 6.75087 24.7593 6.75087 24.4801 6.67648V1.46561ZM19.1639 3.22762C19.5026 2.98004 19.8586 2.75536 20.2301 2.55508V4.42963C19.9509 4.50401 19.4431 4.50401 19.1639 4.42963V3.22762ZM17.6987 4.562C17.709 4.58069 17.5014 5.95016 19.6972 5.95016C20.9297 5.95016 21.6953 5.46837 21.6953 4.69322V1.92451C22.1222 1.78337 22.5632 1.67313 23.0148 1.59607V6.94008C23.0148 7.87926 24.0784 8.19664 25.0134 8.19664C26.2459 8.19664 27.0115 7.71523 27.0115 6.94008V1.59607C27.4635 1.67313 27.9041 1.78337 28.331 1.92451V4.69322C28.331 5.46837 29.0966 5.95016 30.3291 5.95016C32.5596 5.95016 32.3151 4.58488 32.3277 4.562C35.0502 7.63626 34.5783 11.0611 34.6321 11.3834H15.3942C15.4488 11.0573 14.9647 7.64885 17.6987 4.562ZM17.0658 18.9434C17.0456 17.9985 15.8752 18.2594 15.7387 18.2266C15.2763 18.2266 14.9002 17.8501 14.9002 17.3878V15.744H17.8089C18.7778 15.744 18.779 14.2788 17.8089 14.2788H14.2368C13.2908 14.2788 13.2908 12.8487 14.2368 12.8487H35.7899C36.7363 12.8487 36.7352 14.2788 35.7899 14.2788H20.7394C19.7708 14.2788 19.7693 15.744 20.7394 15.744H35.1265V17.3878C35.1265 17.8501 34.7504 18.2266 34.2876 18.2266C34.1366 18.2629 32.9811 18.0016 32.9609 18.9434C32.8644 23.4428 29.068 26.421 25.0134 26.4698C20.9705 26.421 17.1623 23.4539 17.0658 18.9434ZM28.944 27.0828V29.1142C28.944 31.2817 27.1809 33.0452 25.0134 33.0452C22.8458 33.0452 21.0823 31.2817 21.0823 29.1142V27.0828C23.505 28.1773 26.3611 28.2497 28.944 27.0828ZM16.1232 30.6824L19.688 29.9889C20.1073 32.5497 22.3358 34.51 25.0134 34.51C27.6909 34.51 29.9191 32.5497 30.3383 29.9889L33.9035 30.6824V36.1656C33.9035 36.795 33.3916 37.307 32.7618 37.307H17.2646C16.6355 37.307 16.1232 36.795 16.1232 36.1656V30.6824ZM10.0937 31.8947V40.2145H4.59023V38.147C4.59023 35.0441 6.29158 33.1039 10.0937 31.8947ZM6.43921 48.5348C5.41954 48.5348 4.59023 47.7055 4.59023 46.6862V41.6794H10.0937V48.5348H6.43921ZM33.4682 43.0725V44.3748H31.7947C30.8262 44.3748 30.8247 45.8401 31.7947 45.8401H33.4682V48.5348H16.5585V45.8397H28.8643C29.8328 45.8397 29.8344 44.3745 28.8643 44.3745H16.5585C16.5909 43.1747 16.4879 42.9893 16.6412 42.9893C34.3914 43.0286 33.4682 42.9085 33.4682 43.0725ZM38.4678 48.5348H34.9331V43.0721C34.9331 42.2188 34.2388 41.5245 33.3851 41.5245H16.6412C15.7875 41.5245 15.0932 42.2188 15.0932 43.0721V48.5348H11.5589V31.5697L14.658 30.9673V36.1656C14.658 37.603 15.8272 38.7722 17.2646 38.7722H32.7618C34.1991 38.7722 35.3683 37.603 35.3683 36.1656V30.9673L38.4674 31.5697V48.5348H38.4678ZM43.5875 48.5348H39.9326V41.6794H45.4361V46.6862C45.4365 47.7055 44.6068 48.5348 43.5875 48.5348Z" fill="#4990E2"/>
</g>
<defs>
<clipPath id="clip0">
<rect width="50" height="50" fill="white"/>
</clipPath>
</defs>
</svg>
