<svg width="50" height="50" viewBox="0 0 50 50" fill="none" xmlns="http://www.w3.org/2000/svg">
<g clip-path="url(#clip0)">
<path d="M48.5441 13.0071H46.8935C42.5006 4.99776 34.1529 0.0415039 25 0.0415039C15.8522 0.0415039 7.49956 4.99942 3.10682 13.0071H1.45594C0.653121 13.0071 0 13.6602 0 14.463V35.5371C0 36.3399 0.653219 36.9931 1.45594 36.9931H3.10682C7.49956 45.0004 15.8531 49.9586 25 49.9586C34.1529 49.9586 42.5007 45.0024 46.8936 36.9931H48.5442C49.347 36.9931 50.0001 36.3399 50.0001 35.5371V14.463C50 13.6602 49.3469 13.0071 48.5441 13.0071ZM1.46571 14.4728H31.755L30.2893 15.9385H7.20592C6.8011 15.9385 6.47307 16.2666 6.47307 16.6714C6.47307 18.2201 5.21305 19.4802 3.66428 19.4802C3.25945 19.4802 2.93142 19.8083 2.93142 20.213V29.7871C2.93142 30.1919 3.25945 30.52 3.66428 30.52C5.21314 30.52 6.47307 31.78 6.47307 33.3288C6.47307 33.7335 6.8011 34.0616 7.20592 34.0616H12.1662L10.7005 35.5273H1.46571V14.4728ZM33.2207 13.0071H9.541C13.225 8.2704 18.8648 5.45526 24.8705 5.41617C29.1619 5.38832 33.246 6.72857 36.6835 9.2921C36.7295 9.32639 36.7421 9.37212 36.7443 9.40437C36.7464 9.43192 36.7428 9.48498 36.6975 9.53042L33.2207 13.0071ZM13.6319 32.5959H7.87595C7.56874 30.825 6.1682 29.4243 4.39713 29.1172V20.8829C6.1682 20.5758 7.56874 19.1752 7.87595 17.4041H20.0646C17.5827 19.0223 15.9384 21.8226 15.9384 25C15.9384 26.4845 16.3008 27.9378 16.9895 29.2382L13.6319 32.5959ZM48.5343 35.5273H46.4463H24.3632C23.9584 35.5273 23.6304 35.8555 23.6304 36.2602C23.6304 36.6649 23.9584 36.9931 24.3632 36.9931H40.4589C39.3651 38.3987 38.0872 39.6495 36.6453 40.7216C36.3206 40.9632 36.253 41.4222 36.4945 41.747C36.6384 41.9405 36.8593 42.0426 37.0832 42.0426C37.2352 42.0426 37.3885 41.9955 37.52 41.8978C39.3696 40.5224 40.969 38.8735 42.2793 36.9931H45.206C40.9766 44.1172 33.3437 48.4929 25 48.4929C16.6617 48.4929 9.02399 44.1155 4.79444 36.9931H7.71062C7.84341 37.1839 7.97855 37.3738 8.11721 37.5598C8.39813 37.9365 8.82866 38.1722 9.29847 38.2062C9.33785 38.209 9.37723 38.2104 9.41641 38.2104C9.84655 38.2104 10.2606 38.0402 10.5669 37.7338L21.5565 26.7443C21.8427 26.4581 21.8427 25.9941 21.5565 25.708C21.2703 25.4219 20.8064 25.4217 20.5201 25.708L18.0844 28.1436C17.6382 27.1619 17.4042 26.0913 17.4042 25.0001C17.4042 20.8117 20.8117 17.4042 25 17.4042C26.0911 17.4042 27.1617 17.6381 28.1434 18.0844L22.7284 23.4994C22.4422 23.7856 22.4422 24.2497 22.7284 24.5358C22.8715 24.6788 23.0592 24.7505 23.2467 24.7505C23.4342 24.7505 23.6218 24.6789 23.7649 24.5358L37.7339 10.5669C38.0681 10.2326 38.2403 9.77021 38.2061 9.29854C38.172 8.82874 37.9364 8.39821 37.5596 8.11718C33.9019 5.3893 29.5631 3.95007 25.0018 3.95007C24.9551 3.95007 24.9076 3.95016 24.8609 3.95046C18.033 3.99482 11.6473 7.37631 7.72293 13.0071H4.79434C9.0239 5.88432 16.661 1.50722 25 1.50722C33.3438 1.50722 40.9767 5.88295 45.2061 13.0071H42.2895C42.1564 12.8159 42.0213 12.6258 41.883 12.4403C41.6021 12.0637 41.1715 11.828 40.7017 11.794C40.2284 11.76 39.7676 11.9319 39.4333 12.2663L12.2661 39.4333C11.9319 39.7675 11.7597 40.2299 11.7939 40.7016C11.8279 41.1713 12.0635 41.6019 12.4403 41.883C16.0981 44.6108 20.4369 46.0503 24.9982 46.0501C25.0449 46.0501 25.0924 46.05 25.1391 46.0497C28.4833 46.0279 31.8142 45.1915 34.7719 43.6307C35.13 43.4418 35.267 42.9985 35.0781 42.6405C34.8893 42.2826 34.4462 42.1456 34.0879 42.3344C31.3374 43.7859 28.2396 44.5638 25.1295 44.584C20.8386 44.6141 16.7539 43.2716 13.3165 40.708C13.2705 40.6738 13.2579 40.628 13.2557 40.5958C13.2536 40.5681 13.2572 40.5151 13.3025 40.4696L16.7791 36.9931H21.24C21.6448 36.9931 21.9729 36.6649 21.9729 36.2602C21.9729 35.8555 21.6448 35.5273 21.24 35.5273H18.2448L19.7105 34.0616H42.794C43.1988 34.0616 43.5268 33.7335 43.5268 33.3288C43.5268 31.78 44.7869 30.52 46.3356 30.52C46.7405 30.52 47.0685 30.1919 47.0685 29.7871V20.213C47.0685 19.8083 46.7405 19.4802 46.3356 19.4802C44.7868 19.4802 43.5268 18.2201 43.5268 16.6714C43.5268 16.2666 43.1988 15.9385 42.794 15.9385H37.8339L39.2996 14.4728H48.5343V35.5273ZM21.8566 31.9157L31.9157 21.8568C32.362 22.8385 32.5959 23.909 32.5959 25.0001C32.5959 29.1885 29.1885 32.596 25 32.596C23.909 32.5959 22.8383 32.3621 21.8566 31.9157ZM34.0617 25.0001C34.0617 23.5158 33.6993 22.0625 33.0105 20.7619L36.3682 17.4042H42.1241C42.4314 19.1753 43.8319 20.5758 45.603 20.883V29.1173C43.8319 29.4244 42.4314 30.8251 42.1241 32.5961H29.9355C32.4174 30.9778 34.0617 28.1775 34.0617 25.0001Z" fill="#4990E2"/>
</g>
<defs>
<clipPath id="clip0">
<rect width="50" height="50" fill="white"/>
</clipPath>
</defs>
</svg>
